<svg width="95" height="92" viewBox="0 0 95 92" fill="none" xmlns="http://www.w3.org/2000/svg">
<path d="M24 4.00201H75V24.002H24V4.00201Z" fill="white"/>
<path d="M24 25.002H75V71.002H24V25.002Z" fill="#006CA2"/>
<path d="M27.0512 17.0247C26.523 17.0247 26.0694 17.0551 26.0694 17.8502C26.0694 18.2386 26.0522 18.621 26.0752 19.0094C26.0809 19.2219 26.1096 19.4586 26.2072 19.6407C26.3106 19.8288 26.4311 19.8288 26.5976 19.8531C26.8158 19.8895 26.9995 19.8956 27.2234 19.8956C27.7344 19.8956 28.2569 19.5496 28.4406 19.0034C28.5324 18.712 28.5382 18.3721 28.4004 17.9898C28.1593 17.3707 27.5679 17.0247 27.0512 17.0247Z" fill="#78A3AD"/>
<path d="M40.8252 16.0539L40.808 15.975C40.7046 15.5259 40.607 15.0767 40.5094 14.6276C40.4348 14.4759 40.3831 14.2574 40.1937 14.312C40.0616 14.3484 40.0099 14.5244 39.9755 14.6215L39.9353 14.6701C39.8434 15.2892 39.7401 15.9082 39.631 16.5273L39.6195 16.5941L39.5851 16.7458C39.5679 16.9279 39.5449 17.1282 39.6023 17.3042L39.7401 17.4863L39.964 17.5652L40.119 17.6259H40.653C41.3017 17.4256 40.9056 16.588 40.8424 16.1085L40.8252 16.0539Z" fill="#78A3AD"/>
<path d="M26.609 13.4805C27.1199 13.5897 27.7859 13.4016 28.0845 12.7825C28.3027 12.3273 28.2625 11.7871 28.0041 11.3804L27.9122 11.2469C27.7056 10.998 27.407 10.9313 27.1372 10.9191C26.8673 10.9009 26.5573 10.9191 26.3047 11.0587L26.1784 11.2105C26.1095 11.3501 26.0521 11.5382 26.0234 11.7385C25.9487 12.218 26.0061 12.7946 26.1841 13.1466C26.2817 13.3348 26.431 13.444 26.609 13.4805Z" fill="#78A3AD"/>
<path d="M73.3086 0H20.305C17.3884 0 15 2.5249 15 5.6082V76.002H37.9192V64.0937C37.9192 62.376 39.2455 60.9679 40.8703 60.9679H52.7261C54.3508 60.9679 55.6828 62.376 55.6828 64.0937V76.002H78.6021V5.6082C78.6136 2.5249 76.2252 0 73.3086 0ZM30.3809 53.9334H22.9115V44.4043H30.3809V53.9334ZM30.3809 39.3545H22.9115V29.8254H30.3809V39.3545ZM32.5282 19.9564C32.0516 21.1461 31.2077 22.1718 30.1283 22.6634C28.8537 23.2461 27.4758 23.3129 26.1209 23.2765C25.3516 23.2582 24.3066 23.3189 23.6464 22.8212C22.3776 21.8562 22.6072 20.5088 22.59 19.0278C22.5728 17.7047 22.5728 16.3815 22.5326 15.0644C22.4981 13.8445 22.5154 12.6549 22.5383 11.4592C22.5555 10.5791 22.3316 9.41376 22.9058 8.68542C23.8646 7.45939 25.6903 7.42904 27.0395 7.53829C29.2384 7.72038 31.9426 8.86751 31.6498 11.9569C31.5981 12.4121 31.466 12.8916 31.2479 13.2679C31.0182 13.6685 30.5417 14.148 30.7656 14.7003C31.024 15.3254 31.8048 15.6653 32.1607 16.2723C32.5913 17.0127 32.7923 17.735 32.8038 18.4148C32.8152 18.9489 32.7176 19.477 32.5282 19.9564ZM43.7581 53.9334H36.2887V44.4043H43.7581V53.9334ZM43.7581 39.3545H36.2887V29.8254H43.7581V39.3545ZM44.3495 23.2158C43.7122 23.3857 42.4491 23.2461 42.1563 22.5178C41.7487 21.4981 41.9382 20.3145 40.566 20.1264C39.923 20.0354 38.9929 20.3328 38.723 21.0065C38.4474 21.7105 38.6656 22.5785 37.9537 23.058C37.4714 23.3857 36.794 23.4343 36.237 23.3371C34.9854 23.1247 34.6869 22.1475 34.8706 20.9336C34.9625 20.3449 35.0831 19.7562 35.2266 19.1735C35.5022 17.9899 35.8466 16.8185 36.0993 15.635C36.3634 14.3968 36.5586 13.1465 36.8801 11.9144C37.4427 9.7233 38.4704 6.83423 41.2033 7.80535C42.3745 8.21807 42.7017 9.58978 43.0807 10.6823C43.6318 12.2603 43.85 13.9962 44.1945 15.635C44.4471 16.8185 44.7858 17.9899 45.0672 19.1735C45.2279 19.8775 45.5437 20.9336 45.4518 21.8016C45.3829 22.4692 45.0901 23.0094 44.3495 23.2158ZM57.1354 53.9334H49.6659V44.4043H57.1354V53.9334ZM57.1354 39.3545H49.6659V29.8254H57.1354V39.3545ZM59.0415 18.8154C59.03 19.2827 59.007 19.8351 58.9324 20.3874C58.8233 21.2432 58.5133 22.6938 57.5085 22.797C57.1813 22.8334 56.8253 22.803 56.5383 22.712C54.9364 22.2143 54.6609 20.3874 53.7078 19.1371C53.4609 18.8154 53.2887 18.4755 53.0992 18.1295C52.8811 17.735 52.4447 16.9581 51.951 16.8914C51.3424 16.8064 51.4802 17.7047 51.4859 18.1477C51.5032 19.483 51.9223 22.3296 50.464 23.0033C48.2995 24.0048 47.7598 20.8972 47.7254 19.477C47.6795 17.7047 47.49 15.9324 47.49 14.1601C47.49 12.7763 47.3465 9.83863 48.4947 8.83716C50.3549 7.21661 51.4687 8.91606 52.6514 10.3667C53.1911 11.0343 53.5413 11.7202 53.9949 12.4546C54.2647 12.8916 54.9766 13.365 55.1948 12.6609C55.5623 11.5077 55.1776 10.0632 55.7517 8.99497C56.4579 7.69003 58.4731 8.03599 59.0013 9.34093C59.0989 9.57764 59.1276 9.97822 59.1563 10.2513C59.4663 13.0737 59.0874 15.9688 59.0415 18.8154ZM70.5183 53.9334H63.0432V44.4043H70.5183V53.9334ZM70.5183 39.3545H63.0432V29.8254H70.5183V39.3545ZM71.7183 21.9654C71.391 22.7181 70.4552 23.4646 69.6571 23.149C68.75 22.7909 68.2964 21.8137 67.952 20.9215C67.6247 20.0596 67.2343 19.1371 66.4879 18.5726C66.109 18.2813 65.7932 18.4391 65.5349 18.7425C64.5072 19.9261 66.1722 22.3539 64.4613 23.149C64.0594 23.3311 63.4795 23.3129 63.0489 23.2643C60.9648 23.0337 61.4011 20.8122 61.3897 19.1856C61.3782 17.7896 61.3782 16.4058 61.3323 15.0402C61.2921 13.7899 61.315 12.5881 61.3437 11.3924C61.3495 10.8826 61.3839 10.4577 61.4413 9.95395C61.5102 9.31665 61.4586 8.58224 62.0499 8.16345C62.6011 7.775 63.3762 7.87211 63.979 8.04206C64.7713 8.26663 64.7713 8.58831 65.0354 9.38341C65.2306 9.98429 65.2536 10.6823 65.265 11.3196C65.2765 11.6959 65.3397 12.2179 65.7818 12.2239C66.2353 12.2239 66.62 11.4106 66.8783 11.095C67.1252 10.7855 67.4065 10.5063 67.5558 10.136C68.0783 8.88572 69.7662 7.69003 70.9661 8.86751C72.0053 9.88111 71.2073 11.2953 70.5068 12.2361C69.8696 13.0979 68.75 14.0508 69.1576 15.2769C69.6514 16.7821 70.702 18.087 71.3049 19.5498C71.4943 19.9989 71.7699 20.618 71.8273 21.1946C71.8388 21.4617 71.8216 21.7287 71.7183 21.9654Z" fill="#78A3AD"/>
</svg>
