<svg width="95" height="92" viewBox="0 0 95 92" fill="none" xmlns="http://www.w3.org/2000/svg">
<path d="M24 4.00201H75V24.002H24V4.00201Z" fill="white"/>
<path d="M46.8997 77.5563C60.7303 77.5563 71.9422 64.1052 71.9422 47.5125C71.9422 30.9198 60.7303 17.4688 46.8997 17.4688C33.0691 17.4688 21.8572 30.9198 21.8572 47.5125C21.8572 64.1052 33.0691 77.5563 46.8997 77.5563Z" fill="#428BC1"/>
<path d="M46.8994 70.9063C57.6565 70.9063 66.3769 60.4326 66.3769 47.5126C66.3769 34.5926 57.6565 24.1188 46.8994 24.1188C36.1422 24.1188 27.4219 34.5926 27.4219 47.5126C27.4219 60.4326 36.1422 70.9063 46.8994 70.9063Z" fill="white"/>
<path d="M25.9311 62.3563L23.7449 78.625H25.633C26.8255 78.625 27.223 76.9625 28.018 74.9438C29.0117 72.3313 31.3967 65.5625 31.3967 65.5625L25.9311 62.3563Z" fill="#428BC1"/>
<path d="M67.7683 62.3563L70.054 78.625H68.1658C66.9733 78.625 66.5758 76.9625 65.7808 74.9438C64.7871 72.3313 62.4021 65.5625 62.4021 65.5625L67.7683 62.3563Z" fill="#428BC1"/>
<path d="M28.2171 17.1124L34.0802 24.1187L30.9996 27.9187L25.1365 20.7937L28.2171 17.1124Z" fill="#428BC1"/>
<path d="M65.5819 17.1124L59.7188 24.1187L62.7994 27.9187L68.6625 20.7937L65.5819 17.1124Z" fill="#428BC1"/>
<path d="M20.6644 33.025L38.1544 11.7687C35.9682 9.0375 32.8875 7.375 29.4094 7.375C22.5525 7.375 16.9875 14.1438 16.9875 22.3375C16.9875 26.4937 18.3788 30.2938 20.6644 33.025Z" fill="#B0B8B8"/>
<path d="M55.2468 11.8875L72.9356 32.9062C75.2212 30.175 76.6124 26.4937 76.6124 22.3375C76.6124 14.1438 71.0475 7.375 64.0912 7.375C60.6131 7.49375 57.5325 9.15625 55.2468 11.8875Z" fill="#B0B8B8"/>
<path d="M35.4709 60.3376L45.7066 47.8688L46.8991 49.2938L36.6634 61.6438L35.4709 60.3376Z" fill="#ED4C5C"/>
<path d="M46.8998 51.9061C48.9305 51.9061 50.5766 49.9389 50.5766 47.5123C50.5766 45.0857 48.9305 43.1186 46.8998 43.1186C44.8691 43.1186 43.2229 45.0857 43.2229 47.5123C43.2229 49.9389 44.8691 51.9061 46.8998 51.9061Z" fill="#428BC1"/>
<path d="M45.0115 30.7687H48.6884V48.5812H45.0115V30.7687Z" fill="#428BC1"/>
<path d="M48.6885 45.2561H56.1416V49.6498H48.6885V45.2561Z" fill="#428BC1"/>
</svg>
