<svg width="64" height="76" viewBox="0 0 64 76" fill="none" xmlns="http://www.w3.org/2000/svg">
<g clip-path="url(#clip0_8_58)">
<path d="M47.5737 0H16.0231C14.6846 0.000629206 13.401 0.636233 12.4544 1.76715C11.5078 2.89807 10.9756 4.43179 10.9749 6.03131V69.9723C10.9762 71.5716 11.5085 73.1049 12.455 74.2357C13.4014 75.3665 14.6847 76.0023 16.0231 76.0036H47.5737C48.9123 76.002 50.1957 75.3662 51.1426 74.2356C52.0895 73.105 52.6225 71.5718 52.6249 69.9723V6.04081C52.6233 4.44097 52.0905 2.90725 51.1434 1.77644C50.1964 0.645618 48.9125 0.0101281 47.5737 0.0095" fill="#405866"/>
<path d="M44.3 4.60283H19.2973C18.2369 4.60283 17.2197 5.1054 16.469 6.00031C15.7182 6.89522 15.2951 8.10942 15.2925 9.37658V60.0436C15.2946 61.311 15.7175 62.5256 16.4684 63.4206C17.2193 64.3157 18.2367 64.818 19.2973 64.8174H44.3C46.5062 64.8174 48.2949 62.668 48.2949 60.0436V9.37183C48.2949 6.73558 46.5012 4.59808 44.3 4.59808" fill="#85CFEA"/>
<path d="M31.1039 4.60278H19.3032C18.2427 4.60277 17.2256 5.10534 16.4748 6.00025C15.7241 6.89517 15.301 8.10936 15.2983 9.37653V60.0436C15.3004 61.311 15.7234 62.5255 16.4742 63.4206C17.2251 64.3156 18.2426 64.818 19.3032 64.8173H44.3059C45.1138 64.8173 45.8601 64.5217 46.4882 64.0348C35.858 47.4882 30.1678 25.2451 31.1069 4.6004" fill="#28A6DE"/>
<path d="M35.0794 70.5257C35.0794 72.6834 33.6126 74.4421 31.803 74.4421C29.9934 74.4421 28.5266 72.6846 28.5266 70.5257C28.5266 68.3668 29.9934 66.6093 31.803 66.6093C33.6126 66.6093 35.0794 68.3668 35.0794 70.5257Z" fill="#CBD5DC"/>
<path d="M22.4537 70.5256C22.4604 70.9066 22.4034 71.2853 22.2861 71.6396C22.1688 71.9939 21.9934 72.3167 21.7704 72.589C21.5474 72.8614 21.2811 73.0778 20.9872 73.2256C20.6933 73.3734 20.3777 73.4497 20.0588 73.4499C19.7399 73.4502 19.4242 73.3744 19.1302 73.227C18.8361 73.0796 18.5696 72.8636 18.3463 72.5916C18.123 72.3196 17.9474 71.9971 17.8297 71.6429C17.712 71.2888 17.6546 70.9101 17.6609 70.5292C17.6732 69.7798 17.931 69.066 18.3787 68.5411C18.8265 68.0162 19.4286 67.7219 20.0558 67.7214C20.6831 67.721 21.2855 68.0143 21.7338 68.5386C22.1821 69.0629 22.4406 69.7762 22.4537 70.5256Z" fill="#CBD5DC"/>
<path d="M41.1514 70.5257C41.1422 70.9086 41.1973 71.2898 41.3136 71.6468C41.4298 72.0038 41.6048 72.3293 41.8282 72.6041C42.0516 72.8788 42.3189 73.0972 42.6141 73.2464C42.9094 73.3955 43.2267 73.4724 43.5473 73.4724C43.8679 73.4724 44.1852 73.3955 44.4805 73.2464C44.7758 73.0972 45.043 72.8788 45.2664 72.6041C45.4898 72.3293 45.6648 72.0038 45.7811 71.6468C45.8973 71.2898 45.9525 70.9086 45.9432 70.5257C45.9432 69.7663 45.6908 69.0381 45.2415 68.5012C44.7922 67.9642 44.1828 67.6626 43.5473 67.6626C42.9119 67.6626 42.3025 67.9642 41.8531 68.5012C41.4038 69.0381 41.1514 69.7663 41.1514 70.5257Z" fill="#CBD5DC"/>
</g>
<defs>
<clipPath id="clip0_8_58">
<rect width="63.6" height="76" fill="white"/>
</clipPath>
</defs>
</svg>
