<svg width="64" height="76" viewBox="0 0 64 76" fill="none" xmlns="http://www.w3.org/2000/svg">
<path d="M1.98755 23.75H27.825L29.8125 28.5H3.97505L1.98755 23.75ZM4.63755 33.25H30.475L32.4625 38H6.62505L4.63755 33.25ZM47.7 58.5834C49.8995 58.5834 51.675 56.4617 51.675 53.8334C51.675 51.205 49.8995 49.0834 47.7 49.0834C45.5005 49.0834 43.725 51.205 43.725 53.8334C43.725 56.4617 45.5005 58.5834 47.7 58.5834ZM51.675 30.0834H45.05V38H56.869L51.675 30.0834ZM21.2 58.5834C23.3995 58.5834 25.175 56.4617 25.175 53.8334C25.175 51.205 23.3995 49.0834 21.2 49.0834C19.0005 49.0834 17.225 51.205 17.225 53.8334C17.225 56.4617 19.0005 58.5834 21.2 58.5834ZM53 25.3334L60.95 38V53.8334H55.65C55.65 59.09 52.099 63.3334 47.7 63.3334C43.301 63.3334 39.75 59.09 39.75 53.8334H29.15C29.15 59.09 25.5725 63.3334 21.2 63.3334C16.801 63.3334 13.25 59.09 13.25 53.8334H7.95005V42.75H13.25V47.5H15.264C16.7215 45.5684 18.8415 44.3334 21.2 44.3334C23.5585 44.3334 25.6785 45.5684 27.136 47.5H39.75V19H7.95005C7.95005 15.485 10.3085 12.6667 13.25 12.6667H45.05V25.3334H53Z" fill="#6C63FF"/>
</svg>
